0
SECTION
2
HEADER
9
$INSUNITS
70
4
9
$ACADVER
1
AC1014
9
$HANDSEED
5
FFFF
0
ENDSEC
0
SECTION
2
TABLES
0
TABLE
2
VPORT
5
8
100
AcDbSymbolTable
0
ENDTAB
0
TABLE
2
LTYPE
5
5
100
AcDbSymbolTable
0
LTYPE
5
14
100
AcDbSymbolTableRecord
100
AcDbLinetypeTableRecord
2
BYBLOCK
70
0
0
LTYPE
5
15
100
AcDbSymbolTableRecord
100
AcDbLinetypeTableRecord
2
BYLAYER
70
0
0
ENDTAB
0
TABLE
2
LAYER
5
2
100
AcDbSymbolTable
70
2
0
LAYER
5
50
100
AcDbSymbolTableRecord
100
AcDbLayerTableRecord
2
0
70
0
6
CONTINUOUS
0
ENDTAB
0
TABLE
2
STYLE
5
3
100
AcDbSymbolTable
70
1
0
STYLE
5
11
100
AcDbSymbolTableRecord
100
AcDbTextStyleTableRecord
2
STANDARD
70
0
0
ENDTAB
0
TABLE
2
VIEW
5
6
100
AcDbSymbolTable
70
0
0
ENDTAB
0
TABLE
2
UCS
5
7
100
AcDbSymbolTable
70
0
0
ENDTAB
0
TABLE
2
APPID
5
9
100
AcDbSymbolTable
70
2
0
APPID
5
12
100
AcDbSymbolTableRecord
100
AcDbRegAppTableRecord
2
ACAD
70
0
0
ENDTAB
0
TABLE
2
DIMSTYLE
5
A
100
AcDbSymbolTable
70
1
0
ENDTAB
0
TABLE
2
BLOCK_RECORD
5
1
100
AcDbSymbolTable
70
1
0
BLOCK_RECORD
5
1F
100
AcDbSymbolTableRecord
100
AcDbBlockTableRecord
2
*MODEL_SPACE
0
BLOCK_RECORD
5
1B
100
AcDbSymbolTableRecord
100
AcDbBlockTableRecord
2
*PAPER_SPACE
0
ENDTAB
0
ENDSEC
0
SECTION
2
BLOCKS
0
BLOCK
5
20
100
AcDbEntity
100
AcDbBlockBegin
2
*MODEL_SPACE
0
ENDBLK
5
21
100
AcDbEntity
100
AcDbBlockEnd
0
BLOCK
5
1C
100
AcDbEntity
100
AcDbBlockBegin
2
*PAPER_SPACE
0
ENDBLK
5
1D
100
AcDbEntity
100
AcDbBlockEnd
0
ENDSEC
0
SECTION
2
ENTITIES
0
ARC
5
100
100
AcDbEntity
8
0
100
AcDbCircle
10
15.671751442127228
20
-18.429467888754761
30
0
40
0.49999999999999434
210
0
220
0
230
1
100
AcDbArc
50
224.99999999999943
51
315.00000000000057
0
LINE
5
101
100
AcDbEntity
8
0
100
AcDbLine
10
16.025304832720501
20
-18.783021279348027
30
0
11
24.086322138247148
21
-10.72200397382138
31
0
0
ARC
5
102
100
AcDbEntity
8
0
100
AcDbCircle
10
23.732768747653871
20
-10.368450583228107
30
0
40
0.50000000000000211
210
0
220
0
230
1
100
AcDbArc
50
-44.999999999999694
51
44.999999999999709
0
LINE
5
103
100
AcDbEntity
8
0
100
AcDbLine
10
24.086322138247148
20
-10.014897192634834
30
0
11
22.344144201926145
21
-8.2727192563138399
31
0
0
ARC
5
104
100
AcDbEntity
8
0
100
AcDbCircle
10
24.465464545485784
20
-6.1513989127541935
30
0
40
3.0000000000000004
210
0
220
0
230
1
100
AcDbArc
50
119.99999999999994
51
225.00000000000011
0
LINE
5
105
100
AcDbEntity
8
0
100
AcDbLine
10
22.965464545485787
20
-3.5533227014008766
30
0
11
23.720000000000006
21
-3.1176914536239746
31
0
0
ARC
5
106
100
AcDbEntity
8
0
100
AcDbCircle
10
21.920000000000002
20
0
30
0
40
3.5999999999999992
210
-0
220
0
230
1
100
AcDbArc
50
300.00000000000006
51
360
0
LINE
5
107
100
AcDbEntity
8
0
100
AcDbLine
10
25.52
20
-2.4980018054066022e-15
30
0
11
25.52
21
11.500000000000004
31
0
0
ARC
5
108
100
AcDbEntity
8
0
100
AcDbCircle
10
25.020000000000003
20
11.500000000000004
30
0
40
0.49999999999999822
210
0
220
-0
230
1
100
AcDbArc
50
0
51
90
0
LINE
5
109
100
AcDbEntity
8
0
100
AcDbLine
10
25.020000000000003
20
12.000000000000002
30
0
11
14.696938456699066
21
12.000000000000002
31
0
0
ARC
5
110
100
AcDbEntity
8
0
100
AcDbCircle
10
14.696938456699066
20
15.000000000000007
30
0
40
3.0000000000000004
210
0
220
0
230
1
100
AcDbArc
50
225.58469140280704
51
270
0
ARC
5
111
100
AcDbEntity
8
0
100
AcDbCircle
10
0
20
0
30
0
40
18
210
0
220
-0
230
1
100
AcDbArc
50
45.584691402807046
51
83.871903017196459
0
ARC
5
112
100
AcDbEntity
8
0
100
AcDbCircle
10
-14.696938456699067
20
15
30
0
40
3.0000000000000004
210
-0
220
0
230
1
100
AcDbArc
50
270
51
314.41530859719302
0
LINE
5
113
100
AcDbEntity
8
0
100
AcDbLine
10
-14.696938456699067
20
12
30
0
11
-25.020000000000003
21
12.000000000000002
31
0
0
ARC
5
114
100
AcDbEntity
8
0
100
AcDbCircle
10
-25.02000000000001
20
11.500000000000011
30
0
40
0.49999999999999156
210
0
220
-0
230
1
100
AcDbArc
50
89.99999999999919
51
180
0
LINE
5
115
100
AcDbEntity
8
0
100
AcDbLine
10
-25.52
20
11.5
30
0
11
-25.519999999999946
21
6.178323586070178e-07
31
0
0
ARC
5
116
100
AcDbEntity
8
0
100
AcDbCircle
10
-21.920000000000002
20
0
30
0
40
3.5999999999999988
210
0
220
0
230
1
100
AcDbArc
50
179.99999019088762
51
239.99999999999997
0
LINE
5
117
100
AcDbEntity
8
0
100
AcDbLine
10
-23.720000000000002
20
-3.1176914536239773
30
0
11
-20.792557333066348
21
-4.8078512654153229
31
0
0
ARC
5
118
100
AcDbEntity
8
0
100
AcDbCircle
10
10.486726542874241
20
-18.194190457807593
30
0
40
3.0000000000000018
210
0
220
-0
230
1
100
AcDbArc
50
45.000000000000071
51
119.95819142904247
0
LINE
5
119
100
AcDbEntity
8
0
100
AcDbLine
10
12.608046886433881
20
-16.072870114247948
30
0
11
15.318198051533955
21
-18.783021279348027
31
0
0
LINE
5
120
100
AcDbEntity
8
0
100
AcDbLine
10
-20.17123698950671
20
-5.284607133208997
30
0
11
-12.727922061357855
21
-12.727922061357855
31
0
0
ARC
5
121
100
AcDbEntity
8
0
100
AcDbCircle
10
-22.292557333066352
20
-7.4059274767686389
30
0
40
2.9999999999999991
210
0
220
-0
230
1
100
AcDbArc
50
45
51
59.999999999999943
0
ARC
5
122
100
AcDbEntity
8
0
100
AcDbCircle
10
0
20
0
30
0
40
18
210
0
220
0
230
1
100
AcDbArc
50
225
51
254.64111441917728
0
ARC
5
123
100
AcDbEntity
8
0
100
AcDbCircle
10
1.9737298215558335e-15
20
-16
30
0
40
4
210
0
220
0
230
1
100
AcDbArc
50
301.002719133874
51
322.61680158213511
0
ARC
5
124
100
AcDbEntity
8
0
100
AcDbCircle
10
-5.5621488653217463
20
-20.25
30
0
40
3
210
0
220
-0
230
1
100
AcDbArc
50
37.383198417864847
51
74.64111441917737
0
ARC
5
125
100
AcDbEntity
8
0
100
AcDbCircle
10
5.5621488653217526
20
-20.25
30
0
40
3.0000000000000018
210
0
220
0
230
1
100
AcDbArc
50
105.35888558082276
51
142.61680158213517
0
ARC
5
126
100
AcDbEntity
8
0
100
AcDbCircle
10
0
20
0
30
0
40
18
210
-0
220
0
230
1
100
AcDbArc
50
285.35888558082274
51
299.95819142904247
0
LINE
5
127
100
AcDbEntity
8
0
100
AcDbLine
10
1.8681541692269108
20
17.900000000000002
30
0
11
-1.8681541692269246
21
17.900000000000002
31
0
0
LINE
5
128
100
AcDbEntity
8
0
100
AcDbLine
10
-1.8027756377319928
20
-19.5
30
0
11
1.8027756377319979
21
-19.5
31
0
0
ARC
5
129
100
AcDbEntity
8
0
100
AcDbCircle
10
-1.8027756377319899
20
-18.999999999999993
30
0
40
0.50000000000000955
210
0
220
0
230
1
100
AcDbArc
50
238.99728086612629
51
269.99999999999972
0
ARC
5
130
100
AcDbEntity
8
0
100
AcDbCircle
10
1.8027756377319923
20
-18.999999999999975
30
0
40
0.50000000000002709
210
0
220
0
230
1
100
AcDbArc
50
270.00000000000063
51
301.00271913387331
0
ARC
5
131
100
AcDbEntity
8
0
100
AcDbCircle
10
1.8681541692268575
20
17.399999999998915
30
0
40
0.50000000000109412
210
0
220
-0
230
1
100
AcDbArc
50
83.871903017202541
51
89.999999999993889
0
ARC
5
132
100
AcDbEntity
8
0
100
AcDbCircle
10
-1.8681541692269741
20
17.400000000000439
30
0
40
0.49999999999956302
210
0
220
-0
230
1
100
AcDbArc
50
89.999999999994316
51
96.128096982803214
0
ARC
5
133
100
AcDbEntity
8
0
100
AcDbCircle
10
0
20
0
30
0
40
18
210
0
220
0
230
1
100
AcDbArc
50
96.128096982803555
51
134.41530859719296
0
ARC
5
134
100
AcDbEntity
8
0
100
AcDbCircle
10
1.9737298215558335e-15
20
-16
30
0
40
4
210
0
220
0
230
1
100
AcDbArc
50
217.38319841786489
51
238.99728086612603
0
ENDSEC
0
SECTION
2
OBJECTS
0
DICTIONARY
5
C
100
AcDbDictionary
3
ACAD_GROUP
350
D
3
ACAD_MLINESTYLE
350
17
0
DICTIONARY
5
D
100
AcDbDictionary
0
DICTIONARY
5
1A
330
C
100
AcDbDictionary
0
DICTIONARY
5
17
100
AcDbDictionary
0
ENDSEC
0
EOF
